<svg xmlns="http://www.w3.org/2000/svg" width="1200" height="1500" viewBox="0 0 1200 1500">
  <rect width="1200" height="1500" rx="48" fill="#050816"/>
  <rect x="44" y="44" width="1112" height="1412" rx="36" fill="url(#g)" stroke="#1f2937" stroke-width="3"/>
  <circle cx="900" cy="250" r="180" fill="#f59e0b" fill-opacity="0.14"/>
  <rect x="140" y="180" width="920" height="480" rx="28" fill="#0f172a"/>
  <rect x="190" y="240" width="260" height="26" rx="13" fill="#f8fafc"/>
  <rect x="190" y="295" width="420" height="18" rx="9" fill="#94a3b8"/>
  <rect x="190" y="330" width="360" height="18" rx="9" fill="#94a3b8"/>
  <rect x="190" y="410" width="760" height="180" rx="24" fill="#111827" stroke="#334155"/>
  <rect x="230" y="455" width="220" height="18" rx="9" fill="#f59e0b"/>
  <rect x="230" y="490" width="310" height="18" rx="9" fill="#e2e8f0"/>
  <rect x="230" y="525" width="240" height="18" rx="9" fill="#e2e8f0"/>
  <rect x="140" y="720" width="920" height="520" rx="30" fill="#020617" fill-opacity="0.9"/>
  <rect x="190" y="785" width="220" height="22" rx="11" fill="#f8fafc"/>
  <rect x="190" y="840" width="420" height="18" rx="9" fill="#94a3b8"/>
  <rect x="190" y="875" width="360" height="18" rx="9" fill="#94a3b8"/>
  <rect x="190" y="960" width="680" height="220" rx="24" fill="#111827" stroke="#334155"/>
  <rect x="230" y="1010" width="220" height="16" rx="8" fill="#f59e0b"/>
  <rect x="230" y="1045" width="320" height="16" rx="8" fill="#e2e8f0"/>
  <rect x="230" y="1080" width="260" height="16" rx="8" fill="#e2e8f0"/>
  <text x="600" y="1320" text-anchor="middle" font-family="Arial, sans-serif" font-size="48" fill="#f8fafc">Nexora</text>
  <text x="600" y="1380" text-anchor="middle" font-family="Arial, sans-serif" font-size="30" fill="#94a3b8">Testimoni Joki Rank</text>
  <defs>
    <linearGradient id="g" x1="0" y1="0" x2="1" y2="1">
      <stop offset="0%" stop-color="#111827"/>
      <stop offset="100%" stop-color="#0f172a"/>
    </linearGradient>
  </defs>
</svg>